# xmcd
# 
# Track frame offsets:
#   150
#   23045
#   40549
#   62130
#   82343
#   97600
#   119181
#   136331
#   151192
#   167844
#   185219
#   198355
#   213156
#   229742
#   248620
# 
# Disc length: 3556 seconds
# 
# Revision: 3
# Processed by: cddbd v1.5.2PL0 Copyright (c) Steve Scherf et al.
# Submitted via: Synapstar 1.0 
# 
DISCID=c70de20f
DTITLE=Various Artist - CB - Country Hits - October 2008
DYEAR=2008
DGENRE=Country
TTITLE0=Dierks Bentley Feat. Sarah Buxton - Sweet and Wild
TTITLE1=Carolina Rain - American Radio
TTITLE2=Taylor Swift - Change
TTITLE3=Jamey Johnson - That Lonesome Song
TTITLE4=Josh Gracin - Unbelievable (Ann Marie)
TTITLE5=Sugarland - Already Gone
TTITLE6=Josh Turner - Everything Is Fine
TTITLE7=Jake Owen - Don't Think I Can't Love You
TTITLE8=Miranda Lambert - More Like Her
TTITLE9=Phil Stacey - Old Glory
TTITLE10=Stephen Cochran - Thinkin' I'm Drinkin'
TTITLE11=Melissa Lawson - What If It All Goes Right
TTITLE12=One Flew South - My Kind Of Beautiful
TTITLE13=Kevin Fowler - Best Mistake I Ever Made
TTITLE14=Carter's Chord - Different Breed
EXTD=MediaType: Karaoke CD+G Producer: chartbuster
EXTT0=
EXTT1=
EXTT2=
EXTT3=
EXTT4=
EXTT5=
EXTT6=
EXTT7=
EXTT8=
EXTT9=
EXTT10=
EXTT11=
EXTT12=
EXTT13=
EXTT14=
PLAYORDER=
